<svg xmlns="http://www.w3.org/2000/svg" fill="none" version="1.1" width="550" height="550" viewBox="120 20 500 500" role="img" aria-labelledby="logo-title logo-desc">
  <title id="logo-title">AgentScope Go</title>
  <desc id="logo-desc">AgentScope AS logo with a Go mole mascot standing near the lower-right corner.</desc>
  <defs>
    <linearGradient id="as-cyan" x1="0.01500389538705349" y1="0.4831196665763855" x2="0.9407116114637801" y2="0.3076102348892569">
      <stop offset="0%" stop-color="#01C5FF"/>
      <stop offset="100%" stop-color="#019DFB"/>
    </linearGradient>
    <linearGradient id="as-blue" x1="0.21085502207279205" y1="0.38703426718711853" x2="0.9523109409029081" y2="0.390888421140005">
      <stop offset="0%" stop-color="#4701EF"/>
      <stop offset="100%" stop-color="#395EEF"/>
    </linearGradient>
  </defs>

  <g id="go-mole-stand" transform="translate(510 340) scale(0.27)">
      <path fill-rule="evenodd" clip-rule="evenodd" fill="#F6D2A2" stroke="#000000" stroke-width="3" stroke-linecap="round" d="M10.634,300.493c0.764,15.751,16.499,8.463,23.626,3.539c6.765-4.675,8.743-0.789,9.337-10.015c0.389-6.064,1.088-12.128,0.744-18.216c-10.23-0.927-21.357,1.509-29.744,7.602C10.277,286.542,2.177,296.561,10.634,300.493"/>
      <path fill-rule="evenodd" clip-rule="evenodd" fill="#C6B198" stroke="#000000" stroke-width="3" stroke-linecap="round" d="M10.634,300.493c2.29-0.852,4.717-1.457,6.271-3.528"/>
      <path fill-rule="evenodd" clip-rule="evenodd" fill="#6AD7E5" stroke="#000000" stroke-width="3" stroke-linecap="round" d="M46.997,112.853C-13.3,95.897,31.536,19.189,79.956,50.74L46.997,112.853z"/>
      <path fill-rule="evenodd" clip-rule="evenodd" fill="#6AD7E5" stroke="#000000" stroke-width="3" stroke-linecap="round" d="M314.895,44.984c47.727-33.523,90.856,42.111,35.388,61.141L314.895,44.984z"/>
      <path fill-rule="evenodd" clip-rule="evenodd" fill="#F6D2A2" stroke="#000000" stroke-width="3" stroke-linecap="round" d="M325.161,494.343c12.123,7.501,34.282,30.182,16.096,41.18c-17.474,15.999-27.254-17.561-42.591-22.211C305.271,504.342,313.643,496.163,325.161,494.343z"/>
      <path fill-rule="evenodd" clip-rule="evenodd" fill="none" stroke="#000000" stroke-width="3" stroke-linecap="round" d="M341.257,535.522c-2.696-5.361-3.601-11.618-8.102-15.939"/>
      <path fill-rule="evenodd" clip-rule="evenodd" fill="#F6D2A2" stroke="#000000" stroke-width="3" stroke-linecap="round" d="M108.579,519.975c-14.229,2.202-22.238,15.039-34.1,21.558c-11.178,6.665-15.454-2.134-16.461-3.92c-1.752-0.799-1.605,0.744-4.309-1.979c-10.362-16.354,10.797-28.308,21.815-36.432C90.87,496.1,100.487,509.404,108.579,519.975z"/>
      <path fill-rule="evenodd" clip-rule="evenodd" fill="none" stroke="#000000" stroke-width="3" stroke-linecap="round" d="M58.019,537.612c0.542-6.233,5.484-10.407,7.838-15.677"/>
      <path fill-rule="evenodd" clip-rule="evenodd" fill="#000000" d="M49.513,91.667c-7.955-4.208-13.791-9.923-8.925-19.124c4.505-8.518,12.874-7.593,20.83-3.385L49.513,91.667z"/>
      <path fill-rule="evenodd" clip-rule="evenodd" fill="#000000" d="M337.716,83.667c7.955-4.208,13.791-9.923,8.925-19.124c-4.505-8.518-12.874-7.593-20.83-3.385L337.716,83.667z"/>
      <path fill-rule="evenodd" clip-rule="evenodd" fill="#F6D2A2" stroke="#000000" stroke-width="3" stroke-linecap="round" d="M392.475,298.493c-0.764,15.751-16.499,8.463-23.626,3.539c-6.765-4.675-8.743-0.789-9.337-10.015c-0.389-6.064-1.088-12.128-0.744-18.216c10.23-0.927,21.357,1.509,29.744,7.602C392.831,284.542,400.932,294.561,392.475,298.493"/>
      <path fill-rule="evenodd" clip-rule="evenodd" fill="#C6B198" stroke="#000000" stroke-width="3" stroke-linecap="round" d="M392.475,298.493c-2.29-0.852-4.717-1.457-6.271-3.528"/>
      <path fill-rule="evenodd" clip-rule="evenodd" fill="#6AD7E5" stroke="#000000" stroke-width="3" stroke-linecap="round" d="M195.512,13.124c60.365,0,116.953,8.633,146.452,66.629c26.478,65.006,17.062,135.104,21.1,203.806c3.468,58.992,11.157,127.145-16.21,181.812c-28.79,57.514-100.73,71.982-160,69.863c-46.555-1.666-102.794-16.854-129.069-59.389c-30.826-49.9-16.232-124.098-13.993-179.622c2.652-65.771-17.815-131.742,3.792-196.101C69.999,33.359,130.451,18.271,195.512,13.124"/>
      <path fill-rule="evenodd" clip-rule="evenodd" fill="#FFFFFF" stroke="#000000" stroke-width="2.9081" stroke-linecap="round" d="M206.169,94.16c10.838,63.003,113.822,46.345,99.03-17.197C291.935,19.983,202.567,35.755,206.169,94.16"/>
      <path fill-rule="evenodd" clip-rule="evenodd" fill="#FFFFFF" stroke="#000000" stroke-width="2.8214" stroke-linecap="round" d="M83.103,104.35c14.047,54.85,101.864,40.807,98.554-14.213C177.691,24.242,69.673,36.957,83.103,104.35"/>
      <path fill-rule="evenodd" clip-rule="evenodd" fill="#FFFFFF" stroke="#000000" stroke-width="3" stroke-linecap="round" d="M218.594,169.762c0.046,8.191,1.861,17.387,0.312,26.101c-2.091,3.952-6.193,4.37-9.729,5.967c-4.89-0.767-9.002-3.978-10.963-8.552c-1.255-9.946,0.468-19.576,0.785-29.526L218.594,169.762z"/>
      <ellipse fill-rule="evenodd" clip-rule="evenodd" fill="#000000" cx="107.324" cy="95.404" rx="14.829" ry="16.062"/>
      <ellipse fill-rule="evenodd" clip-rule="evenodd" fill="#FFFFFF" cx="114.069" cy="99.029" rx="3.496" ry="4.082"/>
      <ellipse fill-rule="evenodd" clip-rule="evenodd" fill="#000000" cx="231.571" cy="91.404" rx="14.582" ry="16.062"/>
      <ellipse fill-rule="evenodd" clip-rule="evenodd" fill="#FFFFFF" cx="238.204" cy="95.029" rx="3.438" ry="4.082"/>
      <path fill-rule="evenodd" clip-rule="evenodd" fill="#FFFFFF" stroke="#000000" stroke-width="3" stroke-linecap="round" d="M176.217,168.87c-6.47,15.68,3.608,47.035,21.163,23.908c-1.255-9.946,0.468-19.576,0.785-29.526L176.217,168.87z"/>
      <path fill-rule="evenodd" clip-rule="evenodd" fill="#F6D2A2" stroke="#231F20" stroke-width="3" stroke-linecap="round" d="M178.431,138.673c-12.059,1.028-21.916,15.366-15.646,26.709c8.303,15.024,26.836-1.329,38.379,0.203c13.285,0.272,24.17,14.047,34.84,2.49c11.867-12.854-5.109-25.373-18.377-30.97L178.431,138.673z"/>
      <path fill-rule="evenodd" clip-rule="evenodd" fill="#000000" d="M176.913,138.045c-0.893-20.891,38.938-23.503,43.642-6.016C225.247,149.475,178.874,153.527,176.913,138.045C175.348,125.682,176.913,138.045,176.913,138.045z"/>
  </g>

  <g id="agent-scope-mark" transform="translate(88 82) scale(0.88)">
    <path d="M275.4998779296875,211.25Q275.4998779296875,279.5,373.4999779296875,310.5Q338.4998779296875,287.5,343.9998779296875,232Q344.4969779296875,227.19400000000002,345.9004779296875,222.498Q352.96577792968753,198.857,382.9998779296875,178L415.9998779296875,193.5L469.7738779296875,193.5C477.0958779296875,193.5,481.9218779296875,185.91559999999998,478.3148779296875,179.543Q441.5068779296875,114.5,372.9998779296875,114.5C343.9998779296875,114.5,275.4998779296875,143,275.4998779296875,211.25Z" fill="url(#as-cyan)"/>
    <path d="M343.9999162890625,231.99999791015625Q337.9999162890625,287.5000079101562,373.5000462890625,310.5000079101562L433.4998462890625,333.00010791015626Q449.4994462890625,314.2500079101562,449.4994462890625,295.5000079101562Q449.4994462890625,276.7500079101562,433.4998462890625,258.0000079101562L345.9004862890625,222.49810791015625Q344.4970462890625,227.19412791015625,343.9999162890625,231.99999791015625Z" fill="#0064FC"/>
    <path d="M122.9998779296875,351.5C124.3900479296875,350.6567,125.7727179296875,349.8325,127.1479779296875,349.0269Q125.0392779296875,350.2098,122.9998779296875,351.5ZM127.1479779296875,349.0269Q150.3716779296875,336,181.9998779296875,336C186.2692779296875,335.7983,190.4211779296875,335.9808,194.4638779296875,336.502C250.5488779296875,343.7327,285.6218779296875,416.14300000000003,321.9998779296875,432Q350.1248779296875,444,377.9998779296875,444Q405.8748779296875,444,433.4998779296875,432Q489.9998779296875,400,489.9998779296875,344.5Q489.9998779296875,283,433.4998779296875,258Q449.4998779296875,276.75,449.4998779296875,295.5Q449.4998779296875,314.25,433.4998779296875,333C394.3168779296875,374.257,360.65987792968747,359.947,319.4498779296875,342.4251C286.9518779296875,328.6077,249.7568779296875,312.7935,201.4527779296875,320.6594C179.2413779296875,324.2763,154.6808779296875,332.9,127.1479779296875,349.0269Z" fill="url(#as-blue)"/>
    <path d="M61,437.99973876953123L133.8305,437.99973876953123C141.5661,437.99973876953123,148.608,433.53913876953123,151.9131,426.54513876953126L194.464,336.50202976953125C190.421,335.98083496953126,186.269,335.79829376953126,182,335.99999996953125Q147.4999,335.99999996953125,122.9999,351.5000387695313C93.5,373.5000387695313,87,387.0000387695313,61,437.99973876953123Z" fill="#0064FC"/>
    <path d="M61,438.00038301849366C87,387.00038301849366,93.5,373.50038301849366,122.9999,351.50038301849366C152.2215,333.77438301849367,178.132,324.45738301849366,201.453,320.65938301849366L256.597,207.04148301849364C259.081,201.92438301849364,259.26800000000003,195.99188301849364,257.11199999999997,190.72838301849367L227.948,119.52337301849366C225.653,113.91851301849366,217.805,113.67667301849366,215.169,119.12954301849365L61,438.00038301849366Z" fill="#01C8FF"/>
  </g>
</svg>
